<svg width="223" height="125" viewBox="0 0 223 125" fill="none" xmlns="http://www.w3.org/2000/svg">
<path d="M27.656 16.528L29.456 12.712C21.968 11.668 18.116 7.384 18.116 3.496V1.912H13.04V3.496C13.04 7.384 9.296 11.668 1.7 12.712L3.5 16.528C9.296 15.664 13.436 13 15.596 9.4C17.756 13 21.86 15.664 27.656 16.528ZM17.828 22.828H30.536V18.976H0.584V22.828H13.076V34.132H17.828V22.828ZM61.2772 12.604V8.68H56.8852V0.903999H52.1332V20.092H56.8852V12.604H61.2772ZM47.7772 3.1H32.0812V6.88H42.5572C41.8372 11.524 38.0572 15.088 30.5332 17.104L32.4412 20.92C42.2692 18.184 47.7772 12.064 47.7772 3.1ZM46.1212 20.524C39.3892 20.524 34.9972 23.188 34.9972 27.328C34.9972 31.504 39.3892 34.132 46.1212 34.132C52.8532 34.132 57.2452 31.504 57.2452 27.328C57.2452 23.188 52.8532 20.524 46.1212 20.524ZM46.1212 30.424C42.0532 30.424 39.6772 29.38 39.6772 27.328C39.6772 25.276 42.0532 24.232 46.1212 24.232C50.1892 24.232 52.5652 25.276 52.5652 27.328C52.5652 29.38 50.1892 30.424 46.1212 30.424ZM89.0506 25.132H93.8386V0.975998H89.0506V25.132ZM84.1906 20.128L86.6026 16.348C81.2386 14.62 78.8986 10.372 78.8986 6.016V2.776H74.0746V6.016C74.0746 10.336 71.6986 15.088 66.1906 16.924L68.6026 20.704C72.4906 19.372 75.0106 16.672 76.5586 13.324C77.9986 16.492 80.4466 18.868 84.1906 20.128ZM94.6666 33.52V29.74H76.5226V22.828H71.7706V33.52H94.6666ZM114.284 19.912L116.444 16.276C111.116 14.836 108.812 11.596 108.704 8.104H115.256V4.36H108.704V0.831998H103.952V4.36H97.4718V8.104H103.952C103.844 11.812 101.612 15.52 96.3198 17.068L98.5518 20.74C102.44 19.624 104.996 17.284 106.472 14.26C108.02 16.888 110.54 18.94 114.284 19.912ZM119.504 0.939999V9.796H114.356V13.612H119.504V20.956H124.256V0.939999H119.504ZM113.06 21.532C106.004 21.532 101.684 23.8 101.684 27.832C101.684 31.792 106.004 34.096 113.06 34.096C120.08 34.096 124.4 31.792 124.4 27.832C124.4 23.8 120.08 21.532 113.06 21.532ZM113.06 30.46C108.632 30.46 106.436 29.596 106.436 27.832C106.436 26.068 108.632 25.168 113.06 25.168C117.452 25.168 119.648 26.068 119.648 27.832C119.648 29.668 117.416 30.46 113.06 30.46ZM141.749 12.712C149.633 12.712 153.773 10.804 153.773 7.06C153.773 3.424 149.633 1.408 141.749 1.408C133.937 1.408 129.761 3.424 129.761 7.06C129.761 10.804 133.937 12.712 141.749 12.712ZM141.749 4.9C146.681 4.9 148.841 5.584 148.841 7.06C148.841 8.608 146.681 9.256 141.749 9.256C136.961 9.256 134.693 8.608 134.693 7.06C134.693 5.584 136.961 4.9 141.749 4.9ZM156.725 18.004V14.296H126.773V18.004H156.725ZM153.953 30.28H134.945V28.408H153.089V19.876H130.193V23.368H148.409V25.132H130.229V33.844H153.953V30.28ZM188.314 17.824H193.066V13.9H188.314V0.939999H183.562V34.096H188.314V17.824ZM181.402 5.836H174.202V1.516H169.45V5.836H162.106V9.616H181.402V5.836ZM171.862 11.488C167.038 11.488 163.438 14.764 163.438 19.372C163.438 24.088 167.038 27.328 171.862 27.328C176.65 27.328 180.214 24.088 180.214 19.372C180.214 14.764 176.65 11.488 171.862 11.488ZM171.862 23.44C169.558 23.44 167.974 22 167.974 19.408C167.974 16.816 169.558 15.34 171.862 15.34C174.166 15.34 175.714 16.888 175.714 19.372C175.714 21.964 174.166 23.44 171.862 23.44ZM196.232 13.684H219.236V9.904H200.984V2.128H196.232V13.684ZM222.548 20.884V17.068H192.524V20.884H222.548ZM219.416 29.596H200.696V23.512H195.908V33.412H219.416V29.596ZM7.604 49.36H2.276V76H7.604V49.36ZM20.0988 49.36H11.2788V76H20.7828C26.6508 76 31.1148 73.516 31.1148 68.152C31.1148 64.552 28.9908 62.536 26.1108 61.852V61.672C28.3788 60.916 29.7468 58.288 29.7468 55.912C29.7468 50.908 25.5708 49.36 20.0988 49.36ZM19.7028 60.196H16.6068V53.428H19.7748C22.9788 53.428 24.5628 54.364 24.5628 56.704C24.5628 58.864 23.1588 60.196 19.7028 60.196ZM20.3148 71.896H16.6068V64.156H20.3148C24.0588 64.156 25.9308 65.236 25.9308 67.828C25.9308 70.6 23.9508 71.896 20.3148 71.896ZM38.8427 63.184C43.2347 63.184 46.7987 59.764 46.7987 55.012C46.7987 50.224 43.2347 46.804 38.8427 46.804C34.4147 46.804 30.8507 50.224 30.8507 55.012C30.8507 59.764 34.4147 63.184 38.8427 63.184ZM38.8427 61.348C35.3867 61.348 32.9027 58.864 32.9027 55.012C32.9027 51.16 35.3867 48.676 38.8427 48.676C42.2627 48.676 44.7467 51.16 44.7467 55.012C44.7467 58.864 42.2627 61.348 38.8427 61.348ZM39.1307 50.908H35.6027V59.008H37.7987V56.416H39.0947L40.3907 59.008H42.6587L40.9307 55.804C41.9027 55.372 42.3707 54.508 42.3707 53.536C42.3707 51.7 40.9667 50.908 39.1307 50.908ZM38.6627 54.904H37.7987V52.564H38.6987C39.6707 52.564 40.0667 53.032 40.0667 53.716C40.0667 54.4 39.6347 54.904 38.6627 54.904ZM82.0168 63.724V59.908H77.8408C78.5248 56.02 78.5248 53.104 78.5248 50.368V47.452H55.7008V51.268H73.8448C73.8448 53.86 73.7728 56.452 73.0888 59.908H51.9928V63.724H64.8808V70.744H69.6328V63.724H82.0168ZM78.9928 74.74H60.2368V67.828H55.4848V78.52H78.9928V74.74ZM99.15 55.84H105.198V65.38H109.95V45.94H105.198V51.988H99.15V55.84ZM99.69 64.336L102.174 60.592C96.882 58.864 94.758 54.868 94.758 50.404V47.668H89.934V50.62C89.934 55.228 87.594 59.656 81.942 61.492L84.426 65.308C88.35 63.976 90.978 61.384 92.454 57.928C93.858 60.952 96.198 63.148 99.69 64.336ZM98.754 66.208C91.698 66.208 87.378 68.548 87.378 72.688C87.378 76.72 91.698 79.096 98.754 79.096C105.774 79.096 110.094 76.72 110.094 72.688C110.094 68.548 105.774 66.208 98.754 66.208ZM98.754 75.46C94.326 75.46 92.13 74.524 92.13 72.688C92.13 70.816 94.326 69.88 98.754 69.88C103.146 69.88 105.342 70.816 105.342 72.688C105.342 74.524 103.146 75.46 98.754 75.46ZM135.219 69.772H140.007V45.976H135.219V69.772ZM130.971 56.488C130.971 51.592 127.047 48.064 121.971 48.064C116.895 48.064 112.935 51.592 112.935 56.488C112.935 61.312 116.895 64.876 121.971 64.876C127.047 64.876 130.971 61.312 130.971 56.488ZM117.579 56.488C117.579 53.752 119.523 52.168 121.971 52.168C124.455 52.168 126.327 53.752 126.327 56.488C126.327 59.224 124.455 60.772 121.971 60.772C119.523 60.772 117.579 59.224 117.579 56.488ZM140.835 78.52V74.74H122.691V67.432H117.939V78.52H140.835ZM146.448 57.028H169.164V53.284H151.164V50.368H168.912V46.588H146.448V57.028ZM172.728 62.536V58.792H142.74V62.536H172.728ZM169.884 75.172H150.876V73.192H169.02V64.408H146.124V67.972H164.34V69.844H146.16V78.808H169.884V75.172ZM187.918 57.712C195.802 57.712 199.942 55.804 199.942 52.06C199.942 48.424 195.802 46.408 187.918 46.408C180.106 46.408 175.93 48.424 175.93 52.06C175.93 55.804 180.106 57.712 187.918 57.712ZM187.918 49.9C192.85 49.9 195.01 50.584 195.01 52.06C195.01 53.608 192.85 54.256 187.918 54.256C183.13 54.256 180.862 53.608 180.862 52.06C180.862 50.584 183.13 49.9 187.918 49.9ZM202.894 63.004V59.296H172.942V63.004H202.894ZM200.122 75.28H181.114V73.408H199.258V64.876H176.362V68.368H194.578V70.132H176.398V78.844H200.122V75.28ZM28.304 124.06V90.94H23.552V124.06H28.304ZM11.312 106.42C16.316 106.42 19.988 103.504 19.988 99.364C19.988 95.188 16.316 92.272 11.312 92.272C6.308 92.272 2.6 95.188 2.6 99.364C2.6 103.504 6.308 106.42 11.312 106.42ZM11.312 96.124C13.76 96.124 15.452 97.204 15.452 99.364C15.452 101.38 13.76 102.532 11.312 102.532C8.864 102.532 7.172 101.38 7.172 99.364C7.172 97.204 8.864 96.124 11.312 96.124ZM21.968 110.704L21.68 107.248C14.66 108.292 6.416 108.364 0.656 108.364L1.196 112.252C3.536 112.252 6.2 112.216 9.08 112.108V123.088H13.832V111.82C16.568 111.568 19.232 111.244 21.968 110.704ZM59.2252 124.06V90.904H54.7252V104.44H52.2052V91.552H47.7772V122.692H52.2052V108.256H54.7252V124.06H59.2252ZM46.5892 95.944H41.0812V91.84H36.4012V95.944H30.7492V99.724H46.5892V95.944ZM38.7412 101.164C34.5292 101.164 31.4692 104.44 31.4692 109.084C31.4692 113.692 34.5292 116.968 38.7412 116.968C42.9532 116.968 46.0132 113.692 46.0132 109.084C46.0132 104.44 42.9532 101.164 38.7412 101.164ZM38.7412 113.008C36.9052 113.008 35.6452 111.568 35.6452 109.084C35.6452 106.6 36.9052 105.124 38.7412 105.124C40.5772 105.124 41.8372 106.6 41.8372 109.084C41.8372 111.568 40.5772 113.008 38.7412 113.008ZM96.7906 104.404V100.516H92.3986V90.94H87.6466V115.132H92.3986V104.404H96.7906ZM67.2706 109.66H83.0746V93.676H67.2706V109.66ZM71.9146 97.42H78.3946V105.916H71.9146V97.42ZM93.5866 119.74H75.7666V112.756H71.0146V123.52H93.5866V119.74ZM100.352 102.352H123.14V98.644H105.104V95.332H122.888V91.552H100.352V102.352ZM126.524 108.04V104.26H96.5718V108.04H126.524ZM104.06 120.424V118.372H110.432V109.984H99.5958V113.368H106.004V115.204H99.6318V123.88H101.576C106.58 123.88 108.74 123.808 111.332 123.34L111.008 119.956C109.028 120.316 107.228 120.424 104.06 120.424ZM123.14 109.984H112.16V123.88H123.14V109.984ZM119.144 120.496H116.156V113.332H119.144V120.496ZM130.582 121.332C132.218 121.332 133.637 119.964 133.65 118.264C133.637 116.589 132.218 115.222 130.582 115.222C128.894 115.222 127.501 116.589 127.513 118.264C127.501 119.964 128.894 121.332 130.582 121.332Z" fill="white"/>
</svg>
